<?xml version="1.0" encoding="utf-8"?>
<!-- Generator: Adobe Illustrator 16.0.0, SVG Export Plug-In . SVG Version: 6.00 Build 0)  -->
<!DOCTYPE svg PUBLIC "-//W3C//DTD SVG 1.1//EN" "http://www.w3.org/Graphics/SVG/1.1/DTD/svg11.dtd">
<svg version="1.1" id="Layer_1" xmlns="http://www.w3.org/2000/svg" xmlns:xlink="http://www.w3.org/1999/xlink" x="0px" y="0px"
	 width="261.14px" height="132.5px" viewBox="0 0 261.14 132.5" enable-background="new 0 0 261.14 132.5" xml:space="preserve">
<path fill="#4F2683" d="M195.77,79.07c0,4.802-1.637,7.204-4.91,7.204c-2.4,0-5.095-1.492-8.076-4.476l-47.808-48.026l7.1,59.343
	l-19.825-4.103L122.095,17.4c0-1.746,0.473-3.255,1.418-4.53c0.946-1.273,2.293-1.909,4.038-1.909c2.401,0,4.875,1.273,7.424,3.819
	l47.808,47.917l-3.109-50.933l19.142-7.633L195.77,79.07z"/>
<path fill="#4F2683" d="M259.239,85.51l-23.851,8.289l-32.253-39.178c-2.548-2.183-3.819-4.184-3.819-6.003
	c0-1.746,1.271-3.711,3.819-5.894l35.671-39.846l20.851,12.9l-44.843,33.167L259.239,85.51z"/>
<g>
	<path fill="#4F2683" d="M24.421,117.469v10.604h-3.797v-27.009h11.609c3.444,0,5.431,0.596,7.109,2.225
		c1.544,1.51,2.427,3.574,2.427,5.839c0,5.005-3.752,8.342-9.403,8.342H24.421z M24.421,114.33h7.283
		c4.062,0,6.005-1.628,6.005-5.084c0-3.415-1.987-5.124-5.96-5.124h-7.328V114.33z"/>
	<path fill="#4F2683" d="M56.933,117.15v10.922h-3.795v-27.009h11.521c3.752,0,5.651,0.477,7.503,1.947
		c1.855,1.429,2.826,3.534,2.826,5.838c0,3.613-2.383,6.513-6.224,7.389l0.309,0.437c2.164,2.383,3.224,3.854,4.548,6.354
		c1.147,1.986,1.5,2.82,2.338,5.044h-3.927c-0.972-2.344-2.429-4.807-4.856-8.102c-1.015-1.392-1.369-1.788-2.296-2.82H56.933z
		 M56.933,113.972h8.255c3.751,0,5.739-1.667,5.739-4.885c0-3.256-2.031-5.044-5.607-5.044h-8.387V113.972z"/>
	<path fill="#4F2683" d="M87.197,114.449c0-4.25,1.191-7.348,3.839-9.93c2.825-2.86,5.828-3.933,10.684-3.933
		c4.767,0,7.769,1.072,10.595,3.891c2.603,2.545,3.796,5.643,3.796,10.051c0,4.369-1.193,7.428-3.796,10.048
		c-2.781,2.82-6.005,3.972-10.772,3.972c-4.679,0-7.725-1.112-10.506-3.892C88.388,122.114,87.197,118.978,87.197,114.449z
		 M91.256,114.291c0,7.109,3.752,11.238,10.286,11.238c6.665,0,10.507-4.011,10.507-10.882c0-7.228-3.621-11.001-10.55-11.001
		C94.876,103.646,91.256,107.42,91.256,114.291z"/>
	<path fill="#4F2683" d="M133.025,101.063h3.887v24.307c0,2.344-0.354,3.299-1.683,4.411c-1.235,1.031-2.823,1.627-4.676,1.627
		h-3.223v-3.177h2.826c2.119,0,2.869-0.518,2.869-2.105V101.063z"/>
	<path fill="#4F2683" d="M173.712,124.816v3.256H154.95v-27.009h18.144v3.258h-14.346v8.221h12.758v3.098h-12.758v9.177H173.712z"/>
	<path fill="#4F2683" d="M209.668,123.426v3.295c-3.047,1.272-5.958,1.827-9.182,1.827c-9.623,0-15.492-5.241-15.492-13.861
		c0-5.322,2.338-9.65,6.532-12.113c2.381-1.39,4.986-1.986,8.607-1.986c3.31,0,5.122,0.397,8.299,1.789
		c0.132,0.038,0.309,0.116,0.483,0.197v3.415c-3.396-1.667-5.78-2.264-9.223-2.264c-6.843,0-10.639,3.773-10.639,10.485
		c0,3.693,0.705,5.878,2.649,7.865c2.118,2.183,5.074,3.375,8.607,3.375C203.443,125.45,206.712,124.695,209.668,123.426z"/>
	<path fill="#4F2683" d="M219.963,101.063h22.998v3.338h-9.536v23.671h-3.928v-23.671h-9.534V101.063z"/>
</g>
<g>
	<path fill="#4F2683" d="M52.293,76.139L22.214,79.33l2.62-74.743L1.25,6.979l5.127,79.128c0,0-0.182,3.222,1.539,4.786
		c1.88,1.709,5.981,1.367,5.981,1.367l44.322-3.589C55.713,85.106,52.293,76.139,52.293,76.139z"/>
</g>
<path fill="#00BDF2" d="M53.59,6.953c-13.641,6.58,0.799,30.585,10.675,16.699C68.823,17.244,65.042,1.426,53.59,6.953z"/>
<path fill="#00BDF2" d="M102.897,1.341c14.033,5.049,2.178,30.122-8.867,17.509C88.933,13.03,91.116-2.898,102.897,1.341z"/>
<path fill="#00BDF2" d="M74.929,43.349c-1.494-8.094,10.433-22.83,23.453-18.329c4.691,1.623,9.984,7.534,12.551,14.354
	c2.424,6.442,3.399,9.933,3.599,23.185c0.068,4.401-2.788,7.131-3.886,0.859c-0.612-4.135-1.141-7.612-1.711-7.178
	c-0.571,0.435-1.1,6.256-1.148,8.613c-0.276,12.917-0.698,26.195-5.412,27.989c-6.604,2.517,2.022-21.975-4.563-22.607
	c-5.094-0.489-1.525,26.006-8.829,25.272c-11.04-1.11,2.864-43.499-1.229-54.27C83.285,29.483,76.677,52.827,74.929,43.349z"/>
<path fill="#00BDF2" d="M82.43,44.575c-2.864,2.398-6.476,5.928-11.793,3.713c-6.667-2.775-1.18-19.176-11.559-17.989
	c-11.254,1.285-22.237,10.058-22.057,18.465c0.077,3.585,11.782-11.955,13.982-4.148c0.416,1.477-0.457,16.346-5.418,18.698
	c-6.02,2.852-14.954-9.977-15.582-2.607C29.81,62.983,40.08,73.492,44.37,73.728c4.289,0.235,9.326-6.341,11.546-4.188
	c2.222,2.154-0.752,9.109-1.563,14.954c-0.665,4.786-0.685,10.526,1.742,10.762c2.136,0.208,8.254-11.699,9.063-21.6
	c0.629-7.71-1.55-17.646,1.72-17.231C83.626,58.546,86.019,41.568,82.43,44.575z"/>
</svg>
